<svg xmlns="http://www.w3.org/2000/svg" width="256.937" height="33" viewBox="0 0 256.937 33">
  <g id="Logo" transform="translate(0 0.1)">
    <g id="diemedialen" transform="translate(0 -0.1)">
      <path id="Pfad_32323" data-name="Pfad 32323" d="M14.826,29.863a7.318,7.318,0,0,1-6.554,3.119,7.658,7.658,0,0,1-5.415-1.928C.6,28.794,0,25.131,0,21.644s.6-7.168,2.839-9.411A7.581,7.581,0,0,1,8.254,10.3a7.3,7.3,0,0,1,6.554,3.119V0h2.348V32.7H14.826ZM8.587,12.355c-5.415,0-6.239,4.679-6.239,9.271S3.172,30.9,8.587,30.9s6.239-4.679,6.239-9.271S14,12.355,8.587,12.355Z" transform="translate(0 0.018)" fill="#000"/>
      <path id="Pfad_32324" data-name="Pfad 32324" d="M154.5,0h2.892V2.892H154.5Zm.263,10.568h2.348V32.7h-2.348Z" transform="translate(-127.424 0.018)" fill="#000"/>
      <path id="Pfad_32325" data-name="Pfad 32325" d="M229.751,79.357a7.711,7.711,0,0,0,6.1-2.664l1.753,1.384a10.051,10.051,0,0,1-7.992,3.4c-6.1,0-9.411-3.943-9.411-11.339,0-7.168,3.312-11.339,8.85-11.339s8.85,4,8.85,10.8v1.052h-15.37C222.548,76.29,225.019,79.357,229.751,79.357ZM234.8,64.566a6.277,6.277,0,0,0-11.462,0,11.661,11.661,0,0,0-.771,4.189H235.6A10.737,10.737,0,0,0,234.8,64.566Z" transform="translate(-181.609 -48.478)" fill="#000"/>
      <path id="Pfad_32326" data-name="Pfad 32326" d="M395.956,75.754v-14.2c0-3.628-2.068-5.187-4.679-5.187a4.613,4.613,0,0,0-4.819,4.96V75.754h-4.679v-14.2c0-3.628-2.068-5.187-4.679-5.187s-4.819,1.612-4.819,5.187v14.2H367.6V52.463h4.592v2.348a8.415,8.415,0,0,1,6.2-2.611A7.452,7.452,0,0,1,385,55.6a8.83,8.83,0,0,1,7.29-3.4,8.4,8.4,0,0,1,5.871,2.121,8.661,8.661,0,0,1,2.471,6.572V75.771h-4.679Z" transform="translate(-303.177 -43.034)" fill="#000"/>
      <path id="Pfad_32327" data-name="Pfad 32327" d="M602.344,65.384c0,4,2.1,6.519,5.924,6.519a6.958,6.958,0,0,0,5.643-2.383l2.979,2.8a10.921,10.921,0,0,1-8.728,3.628c-5.836,0-10.463-3.084-10.463-11.952,0-7.536,3.908-11.9,9.867-11.9,6.239,0,9.867,4.592,9.867,11.216v2.068Zm9.814-6.432a5.08,5.08,0,0,0-9.218,0,7.537,7.537,0,0,0-.6,3.172h10.463A7.255,7.255,0,0,0,612.158,58.952Z" transform="translate(-492.952 -42.952)" fill="#000"/>
      <path id="Pfad_32328" data-name="Pfad 32328" d="M761.158,32.62V30.131a7.146,7.146,0,0,1-6.151,2.751,8.1,8.1,0,0,1-5.7-2.068c-2.348-2.348-2.611-6.344-2.611-9.884s.28-7.483,2.611-9.832a7.963,7.963,0,0,1,5.643-2.068,7.208,7.208,0,0,1,6.1,2.611V-.1h4.679V32.585h-4.574Zm-4.907-19.383c-4.224,0-4.872,3.575-4.872,7.711s.649,7.764,4.872,7.764,4.819-3.628,4.819-7.764S760.475,13.237,756.251,13.237Z" transform="translate(-615.839 0.1)" fill="#000"/>
      <path id="Pfad_32329" data-name="Pfad 32329" d="M904.4,4.819V0h4.96V4.819Zm.14,27.883V9.411h4.679V32.7H904.54Z" transform="translate(-745.902 0.018)" fill="#000"/>
      <path id="Pfad_32330" data-name="Pfad 32330" d="M985.883,75.589V73.468a7.666,7.666,0,0,1-6.2,2.383c-2.892,0-4.819-.683-6.239-2.121a7.172,7.172,0,0,1-1.84-5.012c0-3.908,2.7-6.712,8.027-6.712h6.151V60.36c0-2.944-1.472-4.364-5.1-4.364-2.576,0-3.8.6-5.1,2.243l-3.067-2.892c2.208-2.576,4.5-3.347,8.36-3.347,6.379,0,9.586,2.716,9.586,7.991v15.58h-4.574ZM985.8,65.3h-5.468c-2.751,0-4.171,1.244-4.171,3.347,0,2.121,1.332,3.312,4.276,3.312,1.788,0,3.12-.14,4.364-1.332a4.7,4.7,0,0,0,1.016-3.452V65.3Z" transform="translate(-801.325 -42.869)" fill="#000"/>
      <path id="Pfad_32331" data-name="Pfad 32331" d="M1133.279,32.7c-4.451,0-6.379-2.979-6.379-6.432V0h4.679V26.007c0,1.788.649,2.716,2.524,2.716h2.068v4h-2.892Z" transform="translate(-929.408 0.018)" fill="#000"/>
      <path id="Pfad_32332" data-name="Pfad 32332" d="M1207.744,65.384c0,4,2.1,6.519,5.923,6.519a6.959,6.959,0,0,0,5.643-2.383l2.979,2.8a10.921,10.921,0,0,1-8.727,3.628c-5.836,0-10.463-3.084-10.463-11.952,0-7.536,3.908-11.9,9.867-11.9,6.239,0,9.867,4.592,9.867,11.216v2.068Zm9.814-6.432a5.08,5.08,0,0,0-9.218,0,7.535,7.535,0,0,0-.6,3.172h10.463A7.514,7.514,0,0,0,1217.558,58.952Z" transform="translate(-992.254 -42.952)" fill="#000"/>
      <path id="Pfad_32333" data-name="Pfad 32333" d="M1372.578,75.754v-14.2c0-3.628-2.068-5.187-4.679-5.187s-4.819,1.612-4.819,5.187v14.2H1358.4V52.463h4.591v2.348a8.3,8.3,0,0,1,6.2-2.611,8.044,8.044,0,0,1,5.731,2.121c1.787,1.753,2.348,3.943,2.348,6.572V75.771h-4.7Z" transform="translate(-1120.338 -43.034)" fill="#000"/>
    </g>
  </g>
</svg>
