<?xml version="1.0" encoding="UTF-8"?>
<!DOCTYPE svg PUBLIC "-//W3C//DTD SVG 1.1//EN" "http://www.w3.org/Graphics/SVG/1.1/DTD/svg11.dtd">
<svg xmlns="http://www.w3.org/2000/svg" version="1.1" width="224px" height="224px" style="shape-rendering:geometricPrecision; text-rendering:geometricPrecision; image-rendering:optimizeQuality; fill-rule:evenodd; clip-rule:evenodd" xmlns:xlink="http://www.w3.org/1999/xlink">
<g><path style="opacity:0.912" fill="#000" d="M 96.5,-0.5 C 106.5,-0.5 116.5,-0.5 126.5,-0.5C 180.5,10.1667 212.833,42.5 223.5,96.5C 223.5,106.5 223.5,116.5 223.5,126.5C 212.833,180.5 180.5,212.833 126.5,223.5C 116.5,223.5 106.5,223.5 96.5,223.5C 42.5,212.833 10.1667,180.5 -0.5,126.5C -0.5,116.5 -0.5,106.5 -0.5,96.5C 10.1667,42.5 42.5,10.1667 96.5,-0.5 Z M 98.5,12.5 C 150.632,9.797 186.466,32.4637 206,80.5C 217.791,124.201 206.624,160.701 172.5,190C 141.598,212.349 108.265,216.683 72.5,203C 66.0077,200.257 60.0077,196.757 54.5,192.5C 66.4112,186.966 77.5779,180.299 88,172.5C 89.5524,181.437 94.3857,187.937 102.5,192C 116.912,195.098 130.578,193.098 143.5,186C 151,181.082 158.667,176.416 166.5,172C 167.467,167.599 167.8,163.099 167.5,158.5C 162.903,160.807 158.57,163.64 154.5,167C 150.317,169.257 145.984,171.257 141.5,173C 127.226,176.059 121.726,170.559 125,156.5C 128.134,146.87 131.968,137.537 136.5,128.5C 143.816,127.585 151.15,126.918 158.5,126.5C 158.879,121.196 160.213,116.196 162.5,111.5C 156.537,110.504 150.537,110.171 144.5,110.5C 148.833,99.8333 153.167,89.1667 157.5,78.5C 145.184,80.045 132.85,81.545 120.5,83C 116.241,92.5401 111.908,102.04 107.5,111.5C 102.73,111.917 98.2296,112.917 94,114.5C 92.7799,119.269 91.2799,123.936 89.5,128.5C 92.7683,129.487 96.1016,129.82 99.5,129.5C 95.534,138.89 92.034,148.556 89,158.5C 83.7761,162.723 78.2761,166.556 72.5,170C 58.9642,175.133 54.4642,170.633 59,156.5C 65.0366,142.328 71.37,128.328 78,114.5C 78.49,113.207 78.6567,111.873 78.5,110.5C 70.8422,111.331 63.1755,112.165 55.5,113C 50.3118,113.529 45.3118,114.696 40.5,116.5C 33.8418,129.482 28.0084,142.815 23,156.5C 3.59681,112.079 10.7635,72.5786 44.5,38C 60.1202,24.3555 78.1202,15.8555 98.5,12.5 Z"/></g>
<g><path style="opacity:0.913" fill="#000" d="M 68.5,48.5 C 78.0296,47.187 86.5296,49.5203 94,55.5C 99.1993,61.5316 100.866,68.5316 99,76.5C 95.4926,86.6741 88.6592,93.5074 78.5,97C 64.9982,99.959 51.9982,98.6256 39.5,93C 39.1667,92.6667 38.8333,92.3333 38.5,92C 44.0667,89.6424 48.2334,85.809 51,80.5C 51.2708,70.3828 54.4374,61.3828 60.5,53.5C 63.2308,51.8084 65.8975,50.1417 68.5,48.5 Z"/></g>
</svg>
