<?xml version="1.0" encoding="UTF-8"?>
<!DOCTYPE svg PUBLIC "-//W3C//DTD SVG 1.1//EN" "http://www.w3.org/Graphics/SVG/1.1/DTD/svg11.dtd">
<svg xmlns="http://www.w3.org/2000/svg" version="1.1" width="393px" height="105px" style="shape-rendering:geometricPrecision; text-rendering:geometricPrecision; image-rendering:optimizeQuality; fill-rule:evenodd; clip-rule:evenodd" xmlns:xlink="http://www.w3.org/1999/xlink">
<g><path style="opacity:0.936" fill="#000" d="M 5.5,0.5 C 12.5079,0.333711 19.5079,0.500377 26.5,1C 27.8333,7 27.8333,13 26.5,19C 19.5079,19.4996 12.5079,19.6663 5.5,19.5C 5.5,13.1667 5.5,6.83333 5.5,0.5 Z"/></g>
<g><path style="opacity:0.939" fill="#000" d="M 36.5,0.5 C 65.5,0.5 94.5,0.5 123.5,0.5C 123.5,6.5 123.5,12.5 123.5,18.5C 112.918,18.1801 102.418,18.5134 92,19.5C 91.6667,46.8333 91.3333,74.1667 91,101.5C 90.2496,102.126 89.4162,102.626 88.5,103C 82.5,103.667 76.5,103.667 70.5,103C 70,102.5 69.5,102 69,101.5C 68.8332,74.1606 68.3332,46.8272 67.5,19.5C 57.2133,18.69 46.88,18.19 36.5,18C 35.1875,12.167 35.1875,6.33366 36.5,0.5 Z"/></g>
<g><path style="opacity:0.911" fill="#000" d="M 133.5,0.5 C 139.833,0.5 146.167,0.5 152.5,0.5C 152.666,6.17645 152.499,11.8431 152,17.5C 146.25,18.6406 140.416,18.8072 134.5,18C 134,17.5 133.5,17 133,16.5C 132.219,11.0833 132.385,5.74993 133.5,0.5 Z"/></g>
<g><path style="opacity:0.94" fill="#000" d="M 189.5,0.5 C 195.758,0.190306 201.924,0.523639 208,1.5C 208.952,26.8746 208.619,52.208 207,77.5C 197.771,97.3664 182.271,105.533 160.5,102C 145.369,97.2031 136.203,87.0364 133,71.5C 132.333,60.1667 132.333,48.8333 133,37.5C 133.5,37 134,36.5 134.5,36C 140.22,35.2124 145.886,35.3791 151.5,36.5C 152.332,47.8187 152.832,59.152 153,70.5C 155.157,79.003 160.657,83.3364 169.5,83.5C 177.92,82.904 184.086,78.904 188,71.5C 188.177,47.7609 188.677,24.0942 189.5,0.5 Z"/></g>
<g><path style="opacity:0.946" fill="#000" d="M 220.5,0.5 C 236.224,0.063115 251.891,0.563115 267.5,2C 294.903,12.966 306.736,33.1326 303,62.5C 295.932,86.9018 279.765,100.402 254.5,103C 236.892,106.559 231.559,100.059 238.5,83.5C 246.845,82.8988 255.179,82.0655 263.5,81C 279.35,73.4701 285.85,60.9701 283,43.5C 279.5,32 272,24.5 260.5,21C 253.874,19.6953 247.208,19.3619 240.5,20C 239.678,31.0905 239.178,42.2571 239,53.5C 238.5,54 238,54.5 237.5,55C 232.167,55.6667 226.833,55.6667 221.5,55C 221,54.5 220.5,54 220,53.5C 219.182,35.7597 219.348,18.093 220.5,0.5 Z"/></g>
<g><path style="opacity:0.973" fill="#000" d="M 314.5,0.5 C 338.833,0.5 363.167,0.5 387.5,0.5C 387.666,6.17645 387.499,11.8431 387,17.5C 386,18.1667 385,18.8333 384,19.5C 362,18.1667 340,18.1667 318,19.5C 316.324,18.9389 314.991,17.9389 314,16.5C 313.267,11.1149 313.433,5.78154 314.5,0.5 Z"/></g>
<g><path style="opacity:0.93" fill="#000" d="M 315.5,29.5 C 320.844,29.334 326.177,29.5006 331.5,30C 331.86,35.2193 332.86,40.2193 334.5,45C 348.075,45.1761 361.575,45.6761 375,46.5C 375.806,52.0838 375.639,57.5838 374.5,63C 360.833,63.3333 347.167,63.6667 333.5,64C 332.19,70.4438 332.19,76.9438 333.5,83.5C 351.453,84.4865 369.453,84.8199 387.5,84.5C 388.097,90.9596 387.43,97.1263 385.5,103C 362.5,103.667 339.5,103.667 316.5,103C 315.667,102.167 314.833,101.333 314,100.5C 313.333,77.5 313.333,54.5 314,31.5C 314.717,30.9558 315.217,30.2891 315.5,29.5 Z"/></g>
<g><path style="opacity:0.946" fill="#000" d="M 6.5,37.5 C 12.8421,37.3338 19.1754,37.5005 25.5,38C 26,38.5 26.5,39 27,39.5C 27.6667,60.1667 27.6667,80.8333 27,101.5C 26.5,102 26,102.5 25.5,103C 18.8417,103.5 12.175,103.666 5.5,103.5C 5.17809,81.4247 5.51143,59.4247 6.5,37.5 Z"/></g>
</svg>
