<?xml version="1.0" encoding="UTF-8"?>
<!DOCTYPE svg PUBLIC "-//W3C//DTD SVG 1.1//EN" "http://www.w3.org/Graphics/SVG/1.1/DTD/svg11.dtd">
<svg xmlns="http://www.w3.org/2000/svg" version="1.1" width="2664px" height="539px" style="shape-rendering:geometricPrecision; text-rendering:geometricPrecision; image-rendering:optimizeQuality; fill-rule:evenodd; clip-rule:evenodd" xmlns:xlink="http://www.w3.org/1999/xlink">
<g><path style="opacity:0.99" fill="#000" d="M 300.5,-0.5 C 312.5,-0.5 324.5,-0.5 336.5,-0.5C 372.907,4.78844 403.073,21.4551 427,49.5C 456.449,86.1837 470.116,128.184 468,175.5C 466.852,182.307 463.352,187.474 457.5,191C 399.295,206.468 340.962,221.468 282.5,236C 279.92,237.481 279.087,239.648 280,242.5C 289.41,263.294 305.577,272.961 328.5,271.5C 345.502,271.133 361.835,267.633 377.5,261C 386.187,256.3 394.853,251.633 403.5,247C 409.527,245.966 415.194,246.966 420.5,250C 435.029,264.863 449.862,279.363 465,293.5C 471.948,304.641 470.781,314.808 461.5,324C 405.128,360.741 343.795,373.408 277.5,362C 224.724,346.559 189.557,312.725 172,260.5C 153.938,202.86 155.604,145.86 177,89.5C 201.414,36.5951 242.581,6.59507 300.5,-0.5 Z M 317.5,79.5 C 329.421,79.796 339.755,83.9627 348.5,92C 356.313,101.118 362.479,111.284 367,122.5C 367.651,124.235 367.485,125.902 366.5,127.5C 333.457,138.125 300.291,148.458 267,158.5C 265.488,157.743 264.154,156.743 263,155.5C 261.085,134.494 265.752,115.161 277,97.5C 288.287,86.3551 301.787,80.3551 317.5,79.5 Z"/></g>
<g><path style="opacity:0.991" fill="#000" d="M -0.5,41.5 C -0.5,36.8333 -0.5,32.1667 -0.5,27.5C 3.75532,13.3485 13.422,7.18188 28.5,9C 48.8333,8.33333 69.1667,8.33333 89.5,9C 101.091,12.261 107.091,19.9277 107.5,32C 104.836,164.826 102.669,297.659 101,430.5C 101.874,432.776 103.541,434.11 106,434.5C 213.131,421.463 320.298,408.629 427.5,396C 440.274,393.026 449.774,397.192 456,408.5C 459.92,433.703 462.254,459.036 463,484.5C 458.999,494.75 451.499,499.917 440.5,500C 303.516,509.91 166.516,519.243 29.5,528C 20.6667,525.833 15.1667,520.333 13,511.5C 8.6437,354.668 4.1437,198.001 -0.5,41.5 Z"/></g>
<g><path style="opacity:0.991" fill="#000" d="M 1080.5,8.5 C 1098.5,8.33339 1116.5,8.50006 1134.5,9C 1143.62,12.5781 1148.62,19.2447 1149.5,29C 1146.96,49.4924 1144.46,69.9924 1142,90.5C 1140.33,96.8413 1136.49,101.341 1130.5,104C 1118.73,105.136 1106.9,105.636 1095,105.5C 1001.83,104.005 908.665,102.838 815.5,102C 814.692,102.308 814.025,102.808 813.5,103.5C 812.847,112.121 812.514,120.788 812.5,129.5C 814.751,254.5 816.585,379.5 818,504.5C 816.222,512.575 811.389,517.742 803.5,520C 775.231,523.162 746.898,525.162 718.5,526C 711,523.833 706.167,519 704,511.5C 703.833,504.833 703.667,498.167 703.5,491.5C 706.702,361.841 709.202,232.174 711,102.5C 709.174,100.926 707.007,100.093 704.5,100C 659.5,99.3235 614.5,98.6569 569.5,98C 560.758,97.9108 552.091,97.2441 543.5,96C 536.291,92.7929 532.125,87.2929 531,79.5C 530.333,65.1667 530.333,50.8333 531,36.5C 534.121,23.0585 542.621,16.8919 556.5,18C 731.336,15.1639 906.003,11.9972 1080.5,8.5 Z"/></g>
<g><path style="opacity:0.991" fill="#000" d="M 1283.5,8.5 C 1303.17,8.33338 1322.84,8.50005 1342.5,9C 1421.4,16.2332 1468.23,58.7332 1483,136.5C 1495.14,217.995 1469.97,285.162 1407.5,338C 1401.34,342.58 1395.01,346.914 1388.5,351C 1386.01,353.627 1385.85,356.46 1388,359.5C 1394.44,368.941 1401.94,377.441 1410.5,385C 1432.22,400.856 1456.22,411.856 1482.5,418C 1491.05,423.94 1494.55,432.107 1493,442.5C 1488.13,461.771 1482.46,480.771 1476,499.5C 1469.29,507.515 1460.79,510.348 1450.5,508C 1412.12,502.14 1378.79,486.14 1350.5,460C 1339.6,449.1 1328.77,438.267 1318,427.5C 1313.5,428.996 1311.66,432.163 1312.5,437C 1313.59,455.822 1313.76,474.655 1313,493.5C 1310.83,501 1306,505.833 1298.5,508C 1274.5,508.667 1250.5,508.667 1226.5,508C 1219.26,506.432 1214.1,502.266 1211,495.5C 1209.9,489.244 1209.4,482.911 1209.5,476.5C 1212.19,328.497 1215.02,180.497 1218,32.5C 1219.62,26.5431 1223.12,22.0431 1228.5,19C 1246.57,13.351 1264.91,9.85098 1283.5,8.5 Z M 1310.5,94.5 C 1326.65,93.513 1342.31,95.6797 1357.5,101C 1374.06,110.259 1383.56,124.426 1386,143.5C 1395.2,206.121 1371.53,251.121 1315,278.5C 1313.49,277.743 1312.15,276.743 1311,275.5C 1309.81,217.49 1308.65,159.49 1307.5,101.5C 1307.69,98.7819 1308.69,96.4486 1310.5,94.5 Z"/></g>
<g><path style="opacity:0.991" fill="#000" d="M 2062.5,12.5 C 2085.5,12.3334 2108.5,12.5 2131.5,13C 2141.66,15.1577 2147.82,21.3244 2150,31.5C 2150.33,111.5 2150.67,191.5 2151,271.5C 2151.9,272.701 2153.07,273.535 2154.5,274C 2177.5,274.667 2200.5,274.667 2223.5,274C 2224.67,273.5 2225.5,272.667 2226,271.5C 2226.33,191.833 2226.67,112.167 2227,32.5C 2229.39,22.442 2235.56,15.942 2245.5,13C 2268.5,12.3333 2291.5,12.3333 2314.5,13C 2322.58,14.7778 2327.74,19.6111 2330,27.5C 2328.03,183.182 2325.03,338.849 2321,494.5C 2318.29,503.214 2312.45,508.381 2303.5,510C 2284.17,511.175 2264.84,511.841 2245.5,512C 2235.56,509.058 2229.39,502.558 2227,492.5C 2226.67,448.167 2226.33,403.833 2226,359.5C 2225.5,358.333 2224.67,357.5 2223.5,357C 2199.87,354.711 2176.21,353.377 2152.5,353C 2152,353.5 2151.5,354 2151,354.5C 2150.67,402.5 2150.33,450.5 2150,498.5C 2148.01,507.818 2142.51,513.985 2133.5,517C 2114.33,518.563 2095.16,520.063 2076,521.5C 2065.11,520.565 2058.11,514.899 2055,504.5C 2051.97,354.504 2049.13,204.504 2046.5,54.5C 2046.37,44.4303 2046.87,34.4303 2048,24.5C 2051.4,18.7237 2056.23,14.7237 2062.5,12.5 Z"/></g>
<g><path style="opacity:0.982" fill="#000" d="M 1579.5,13.5 C 1596.04,11.241 1611.37,14.4077 1625.5,23C 1639.15,35.2958 1643.99,50.4624 1640,68.5C 1634.63,87.2959 1622.13,97.7959 1602.5,100C 1586.47,102.608 1571.47,99.941 1557.5,92C 1541.67,77.8433 1537.17,60.6766 1544,40.5C 1551.12,25.1984 1562.96,16.1984 1579.5,13.5 Z"/></g>
<g><path style="opacity:0.992" fill="#000" d="M 1768.5,15.5 C 1774.89,14.7906 1780.89,15.9573 1786.5,19C 1790.87,23.5612 1794.37,28.7279 1797,34.5C 1803.22,48.9446 1808.89,63.6113 1814,78.5C 1831.14,130.252 1848.47,181.918 1866,233.5C 1871.75,249.076 1878.08,264.409 1885,279.5C 1889.77,281.078 1891.94,279.245 1891.5,274C 1886.76,194.531 1882.92,115.031 1880,35.5C 1882.4,26.7627 1887.9,20.9294 1896.5,18C 1922.17,17.3333 1947.83,17.3333 1973.5,18C 1980.91,20.4084 1986.08,25.2417 1989,32.5C 1990.08,39.2714 1990.58,46.1048 1990.5,53C 1988.06,196.205 1984.22,339.372 1979,482.5C 1979.77,491.574 1977.77,499.908 1973,507.5C 1968.24,512.463 1962.41,515.13 1955.5,515.5C 1937.84,514.26 1920.17,513.093 1902.5,512C 1893.7,509.869 1888.2,504.369 1886,495.5C 1864,428.171 1838.66,362.171 1810,297.5C 1807.67,294.833 1805.33,294.833 1803,297.5C 1802.51,349.834 1802.67,402.168 1803.5,454.5C 1803.64,473.549 1803.14,492.549 1802,511.5C 1797.47,521.68 1789.64,526.68 1778.5,526.5C 1760.8,525.699 1743.14,524.532 1725.5,523C 1715.01,519.208 1709.51,511.708 1709,500.5C 1705.43,345.504 1702.43,190.504 1700,35.5C 1702.26,28.9028 1706.76,24.7361 1713.5,23C 1732.01,20.7295 1750.34,18.2295 1768.5,15.5 Z"/></g>
<g><path style="opacity:0.991" fill="#000" d="M 2663.5,197.5 C 2663.5,221.5 2663.5,245.5 2663.5,269.5C 2661.05,335.929 2655.55,402.263 2647,468.5C 2644.31,487.956 2640.98,507.289 2637,526.5C 2634.15,532.486 2629.65,536.486 2623.5,538.5C 2619.5,538.5 2615.5,538.5 2611.5,538.5C 2590.31,532.609 2568.97,526.776 2547.5,521C 2544.95,518.937 2542.28,517.103 2539.5,515.5C 2491.44,530.106 2448.1,521.606 2409.5,490C 2378.45,458.38 2363.11,420.213 2363.5,375.5C 2365.11,323.123 2385.44,279.623 2424.5,245C 2464.59,213.14 2510.25,194.14 2561.5,188C 2562.74,186.846 2563.74,185.512 2564.5,184C 2562.19,169.589 2557.36,156.089 2550,143.5C 2538.94,128.719 2524.11,120.885 2505.5,120C 2489.65,119.151 2473.99,120.484 2458.5,124C 2447.99,126.837 2437.49,129.671 2427,132.5C 2421.57,132.2 2416.74,130.367 2412.5,127C 2399.54,108.253 2386.71,89.42 2374,70.5C 2367.92,58.5505 2369.75,48.0505 2379.5,39C 2433.47,15.9512 2488.81,12.2845 2545.5,28C 2602.09,46.5968 2638.26,84.7634 2654,142.5C 2658.49,160.752 2661.65,179.085 2663.5,197.5 Z M 2555.5,294.5 C 2558.36,294.055 2560.86,294.722 2563,296.5C 2562.87,318.01 2560.87,339.343 2557,360.5C 2550.78,384.846 2536.61,402.679 2514.5,414C 2489.15,422.743 2474.31,413.91 2470,387.5C 2467.03,363.394 2474.53,343.228 2492.5,327C 2511.03,311.401 2532.03,300.568 2555.5,294.5 Z"/></g>
<g><path style="opacity:0.979" fill="#000" d="M 568.5,140.5 C 585.794,138.992 602.127,142.158 617.5,150C 632.437,161.563 636.937,176.396 631,194.5C 625.622,205.285 617.122,212.452 605.5,216C 585.946,221.179 566.613,220.512 547.5,214C 526.499,202.668 520.332,185.835 529,163.5C 538.758,150.036 551.925,142.369 568.5,140.5 Z"/></g>
<g><path style="opacity:0.99" fill="#000" d="M 1554.5,140.5 C 1578.5,140.333 1602.5,140.5 1626.5,141C 1635.79,142.958 1641.96,148.458 1645,157.5C 1643.88,269.192 1641.55,380.859 1638,492.5C 1635.5,500.333 1630.33,505.5 1622.5,508C 1601.43,508.23 1580.43,507.23 1559.5,505C 1551.81,501.977 1546.98,496.477 1545,488.5C 1541.37,381.504 1537.87,274.504 1534.5,167.5C 1534.19,153.053 1540.86,144.053 1554.5,140.5 Z"/></g>
<g><path style="opacity:0.991" fill="#000" d="M 907.5,158.5 C 931.18,159.746 954.846,161.246 978.5,163C 985.318,164.326 990.152,168.16 993,174.5C 994.045,178.245 994.545,182.079 994.5,186C 989.947,253.116 986.78,320.282 985,387.5C 985.567,397.872 988.901,407.205 995,415.5C 1010.64,428.084 1025.64,427.417 1040,413.5C 1046.59,402.813 1049.92,391.146 1050,378.5C 1050.16,356.15 1049.49,333.817 1048,311.5C 1045.47,272.644 1042.64,233.811 1039.5,195C 1038.86,184.284 1043.52,176.951 1053.5,173C 1076.49,170.668 1099.49,168.501 1122.5,166.5C 1135.6,168.099 1142.77,175.433 1144,188.5C 1149.41,248.41 1153.24,308.41 1155.5,368.5C 1156.23,402.359 1148.4,434.026 1132,463.5C 1104.95,504.121 1066.78,525.121 1017.5,526.5C 958.643,524.844 916.81,497.511 892,444.5C 884.803,426.184 880.803,407.184 880,387.5C 881.897,317.113 885.231,246.78 890,176.5C 892.014,166.654 897.847,160.654 907.5,158.5 Z"/></g>
<g><path style="opacity:0.991" fill="#000" d="M 539.5,265.5 C 566.169,265.333 592.835,265.5 619.5,266C 627.192,269.023 632.025,274.523 634,282.5C 632.888,356.202 630.554,429.869 627,503.5C 624.997,511.502 620.164,517.002 612.5,520C 592.138,520.42 571.805,519.753 551.5,518C 542.369,515.535 536.535,509.702 534,500.5C 530.389,430.506 526.889,360.506 523.5,290.5C 523.581,278.645 528.914,270.311 539.5,265.5 Z"/></g>
</svg>
