<?xml version="1.0" encoding="UTF-8"?>
<!DOCTYPE svg PUBLIC "-//W3C//DTD SVG 1.1//EN" "http://www.w3.org/Graphics/SVG/1.1/DTD/svg11.dtd">
<svg xmlns="http://www.w3.org/2000/svg" version="1.1" width="320px" height="264px" style="shape-rendering:geometricPrecision; text-rendering:geometricPrecision; image-rendering:optimizeQuality; fill-rule:evenodd; clip-rule:evenodd" xmlns:xlink="http://www.w3.org/1999/xlink">
<g><path style="opacity:0.725" fill="#000000" d="M 125.5,-0.5 C 126.167,-0.5 126.833,-0.5 127.5,-0.5C 134.137,5.96716 140.97,12.3005 148,18.5C 149.115,21.9215 149.781,25.2548 150,28.5C 151.171,29.8932 152.671,30.7265 154.5,31C 156.252,35.0878 159.085,38.2545 163,40.5C 166.29,37.8856 168.79,34.7189 170.5,31C 172.519,30.5503 174.352,29.717 176,28.5C 175.333,24.5 174.667,20.5 174,16.5C 181.023,10.969 187.857,5.30231 194.5,-0.5C 195.5,-0.5 196.5,-0.5 197.5,-0.5C 200.462,2.96414 203.629,6.29747 207,9.5C 207.667,10.1667 207.667,10.8333 207,11.5C 201.689,18.3123 196.189,24.979 190.5,31.5C 186.647,32.4367 182.98,31.7701 179.5,29.5C 176.878,30.9522 175.212,33.1188 174.5,36C 170.95,37.5406 167.95,39.874 165.5,43C 176.026,52.7701 186.359,62.7701 196.5,73C 195.259,76.3491 193.092,77.1824 190,75.5C 181,65.8333 172,56.1667 163,46.5C 153.136,56.0295 143.636,65.8629 134.5,76C 130.675,76.8361 129.175,75.3361 130,71.5C 140.011,62.3216 149.844,52.9882 159.5,43.5C 154.939,39.0832 150.605,34.5832 146.5,30C 143.756,30.9906 141.089,30.6573 138.5,29C 131.635,22.4693 125.135,15.636 119,8.5C 118.409,7.51654 118.743,6.84987 120,6.5C 125.488,11.3202 130.988,16.1535 136.5,21C 140.76,21.6152 141.927,20.1152 140,16.5C 135.333,11.8333 130.667,7.16667 126,2.5C 125.517,1.55198 125.351,0.551975 125.5,-0.5 Z M 195.5,8.5 C 191.704,12.7978 187.704,16.9644 183.5,21C 182.668,21.6877 182.002,21.521 181.5,20.5C 185.886,16.1094 190.553,12.1094 195.5,8.5 Z M 188.5,9.5 C 187.415,11.5869 185.749,12.9202 183.5,13.5C 184.585,11.4131 186.251,10.0798 188.5,9.5 Z M 182.5,14.5 C 181.746,16.4459 180.412,17.2793 178.5,17C 179.471,15.5187 180.804,14.6854 182.5,14.5 Z M 194.5,14.5 C 192.443,18.067 189.777,21.2337 186.5,24C 185.833,24.6667 185.167,24.6667 184.5,24C 187.703,20.6291 191.036,17.4625 194.5,14.5 Z M 199.5,14.5 C 199.573,16.0269 198.906,17.0269 197.5,17.5C 197.427,15.9731 198.094,14.9731 199.5,14.5 Z M 194.5,20.5 C 193.272,23.0751 191.605,25.4084 189.5,27.5C 188.479,26.9984 188.312,26.3317 189,25.5C 190.704,23.6266 192.537,21.9599 194.5,20.5 Z"/></g>
<g><path style="opacity:0.935" fill="#000000" d="M 195.5,88.5 C 209.906,87.5761 222.073,92.2428 232,102.5C 236.004,107.52 237.337,113.187 236,119.5C 233.205,120.94 230.205,121.607 227,121.5C 222.811,121.187 218.644,120.687 214.5,120C 212.114,117.204 210.281,114.037 209,110.5C 202.846,105.952 197.512,106.619 193,112.5C 191.891,117.648 192.891,122.315 196,126.5C 198.167,128.667 200.333,130.833 202.5,133C 206.998,133.293 211.165,134.46 215,136.5C 215.165,138.678 214.332,140.511 212.5,142C 227.007,153.183 231.174,167.349 225,184.5C 215.543,198.393 202.71,202.56 186.5,197C 171.335,192.511 163.502,182.344 163,166.5C 163.903,165.299 165.069,164.465 166.5,164C 171.833,163.333 177.167,163.333 182.5,164C 184.964,167.049 186.464,170.549 187,174.5C 192.291,180.785 197.958,181.119 204,175.5C 206.039,171.013 205.706,166.68 203,162.5C 199.833,159.333 196.667,156.167 193.5,153C 188.891,152.534 184.391,151.7 180,150.5C 179.245,147.503 180.078,145.003 182.5,143C 169.867,134.901 164.367,123.401 166,108.5C 168.744,100.755 173.911,95.255 181.5,92C 186.224,90.5058 190.891,89.3391 195.5,88.5 Z"/></g>
<g><path style="opacity:0.94" fill="#000000" d="M 124.5,90.5 C 131.532,90.1697 138.532,90.503 145.5,91.5C 146.098,92.7946 146.598,94.1279 147,95.5C 147.167,109.512 147.667,123.512 148.5,137.5C 160.241,141.372 160.074,145.372 148,149.5C 148.369,158.15 148.369,166.817 148,175.5C 144.635,188.863 136.135,196.697 122.5,199C 110.91,200.955 100.743,198.121 92,190.5C 89.4728,186.779 87.4728,182.779 86,178.5C 84.4376,170.785 82.771,163.118 81,155.5C 69.4608,154.062 68.6275,150.395 78.5,144.5C 78.8333,143.667 79.1667,142.833 79.5,142C 76.9724,128.529 74.6391,115.029 72.5,101.5C 73.0398,98.1286 75.0398,96.2952 78.5,96C 84.8037,94.4065 91.137,94.2399 97.5,95.5C 101.471,121.402 104.971,147.402 108,173.5C 113.444,182.489 119.11,182.489 125,173.5C 124.308,148.136 122.808,122.802 120.5,97.5C 120.197,94.1558 121.53,91.8225 124.5,90.5 Z"/></g>
<g><path style="opacity:0.939" fill="#000000" d="M 319.5,118.5 C 319.5,120.833 319.5,123.167 319.5,125.5C 318.372,128.185 317.038,130.852 315.5,133.5C 313.235,134.647 310.902,134.814 308.5,134C 304.578,132.526 300.578,131.359 296.5,130.5C 294.742,131.128 293.242,132.128 292,133.5C 289.833,140.667 287.667,147.833 285.5,155C 287.28,157.784 289.447,160.284 292,162.5C 292.667,163.833 292.667,165.167 292,166.5C 288.194,167.016 284.528,168.016 281,169.5C 277.188,183.588 272.688,197.421 267.5,211C 260.872,211.301 254.705,209.801 249,206.5C 248.333,204.5 248.333,202.5 249,200.5C 252.169,187.823 255.336,175.156 258.5,162.5C 256.169,160.34 253.669,158.34 251,156.5C 250.506,154.866 250.34,153.199 250.5,151.5C 254.352,151.13 258.019,150.13 261.5,148.5C 263.577,141.027 265.577,133.527 267.5,126C 266.847,123.347 265.18,121.68 262.5,121C 257.464,120.035 252.63,118.535 248,116.5C 247.18,111.362 247.68,106.362 249.5,101.5C 250.025,100.808 250.692,100.308 251.5,100C 274.776,103.813 297.443,109.979 319.5,118.5 Z"/></g>
<g><path style="opacity:0.936" fill="#000000" d="M -0.5,121.5 C -0.5,119.5 -0.5,117.5 -0.5,115.5C 6.13015,112.179 13.1301,109.845 20.5,108.5C 22.0293,108.529 23.196,109.196 24,110.5C 28.153,124.11 32.153,137.777 36,151.5C 38.966,153.034 42.1327,154.2 45.5,155C 46.0219,155.561 46.3552,156.228 46.5,157C 44.5526,159.951 42.2193,162.618 39.5,165C 41.6068,173.254 44.1068,181.421 47,189.5C 48.0617,190.097 49.2284,190.43 50.5,190.5C 56.8052,188.899 63.1386,187.399 69.5,186C 72.1667,185.333 74.8333,185.333 77.5,186C 79.5206,190.275 80.8539,194.775 81.5,199.5C 80.9682,201.741 79.6349,203.241 77.5,204C 62.9533,207.053 48.6199,210.887 34.5,215.5C 33.5,215 32.5,214.5 31.5,214C 26.2775,200.334 21.4441,186.5 17,172.5C 13.5505,171.617 10.0505,170.784 6.5,170C 6.04265,169.586 5.70931,169.086 5.5,168.5C 7.45124,165.214 9.78457,162.214 12.5,159.5C 8.52978,146.586 4.19645,133.92 -0.5,121.5 Z"/></g>
<g><path style="opacity:0.567" fill="#000000" d="M 13.5,225.5 C 21.9714,224.974 25.6381,228.974 24.5,237.5C 23.1667,237.5 21.8333,237.5 20.5,237.5C 20.9804,234.315 20.3137,231.481 18.5,229C 16.2992,228.175 14.4659,228.675 13,230.5C 12.3333,238.833 12.3333,247.167 13,255.5C 15.3333,258.167 17.6667,258.167 20,255.5C 20.4983,252.183 20.665,248.85 20.5,245.5C 19.1667,245.5 17.8333,245.5 16.5,245.5C 16.5,244.167 16.5,242.833 16.5,241.5C 19.1667,241.5 21.8333,241.5 24.5,241.5C 25.038,247.402 24.2047,253.068 22,258.5C 17.736,261.345 13.736,261.012 10,257.5C 8.42379,248.911 8.09045,240.244 9,231.5C 9.59854,228.746 11.0985,226.746 13.5,225.5 Z"/></g>
<g><path style="opacity:0.623" fill="#000000" d="M 43.5,225.5 C 45.1667,225.5 46.8333,225.5 48.5,225.5C 50.9612,237.14 53.2946,248.806 55.5,260.5C 54.325,260.719 53.325,260.386 52.5,259.5C 51.8938,257.291 51.2272,255.124 50.5,253C 47.4459,252.179 44.4459,252.345 41.5,253.5C 40.8108,255.444 40.3108,257.444 40,259.5C 38.9887,260.337 37.8221,260.67 36.5,260.5C 38.9931,248.862 41.3264,237.195 43.5,225.5 Z M 45.5,231.5 C 47.4522,237.249 48.7855,243.249 49.5,249.5C 47.1667,249.5 44.8333,249.5 42.5,249.5C 43.5013,243.496 44.5013,237.496 45.5,231.5 Z"/></g>
<g><path style="opacity:0.63" fill="#000000" d="M 72.5,225.5 C 80.0103,224.679 83.677,228.012 83.5,235.5C 82.5,235.5 81.5,235.5 80.5,235.5C 80.3436,230.151 77.8436,228.151 73,229.5C 71,232.5 71,235.5 73,238.5C 77,241.167 80.3333,244.5 83,248.5C 84.2674,258.57 80.1007,262.07 70.5,259C 68.8073,256.066 67.8073,252.899 67.5,249.5C 68.8333,249.5 70.1667,249.5 71.5,249.5C 70.4545,253.756 71.9545,256.422 76,257.5C 81.0331,254.713 81.6998,251.046 78,246.5C 74.5419,244.283 71.5419,241.617 69,238.5C 68.3333,235.5 68.3333,232.5 69,229.5C 69.6897,227.65 70.8564,226.316 72.5,225.5 Z"/></g>
<g><path style="opacity:0.56" fill="#000000" d="M 95.5,225.5 C 101.167,225.5 106.833,225.5 112.5,225.5C 112.5,226.5 112.5,227.5 112.5,228.5C 110.167,228.5 107.833,228.5 105.5,228.5C 105.5,239.167 105.5,249.833 105.5,260.5C 104.178,260.67 103.011,260.337 102,259.5C 101.5,249.172 101.334,238.839 101.5,228.5C 99.5,228.5 97.5,228.5 95.5,228.5C 95.5,227.5 95.5,226.5 95.5,225.5 Z"/></g>
<g><path style="opacity:0.671" fill="#000000" d="M 124.5,225.5 C 139.182,224.694 143.182,230.861 136.5,244C 137.701,244.903 138.535,246.069 139,247.5C 139.232,251.555 139.732,255.555 140.5,259.5C 139.311,260.429 137.978,260.762 136.5,260.5C 136.879,255.703 136.379,251.036 135,246.5C 132.619,245.565 130.119,245.232 127.5,245.5C 127.5,250.5 127.5,255.5 127.5,260.5C 126.5,260.5 125.5,260.5 124.5,260.5C 124.5,248.833 124.5,237.167 124.5,225.5 Z M 127.5,228.5 C 136.178,229.019 138.512,233.186 134.5,241C 132.323,242.202 129.989,242.702 127.5,242.5C 127.5,237.833 127.5,233.167 127.5,228.5 Z"/></g>
<g><path style="opacity:0.635" fill="#000000" d="M 157.5,225.5 C 162.439,224.352 165.939,226.019 168,230.5C 168.667,238.833 168.667,247.167 168,255.5C 164.841,260.721 160.674,261.721 155.5,258.5C 154.416,257.335 153.583,256.002 153,254.5C 152.333,247.167 152.333,239.833 153,232.5C 153.53,229.415 155.03,227.082 157.5,225.5 Z M 158.5,228.5 C 161.368,228.085 163.535,229.085 165,231.5C 165.667,238.833 165.667,246.167 165,253.5C 163.238,257.866 160.571,258.533 157,255.5C 156.333,247.167 156.333,238.833 157,230.5C 157.717,229.956 158.217,229.289 158.5,228.5 Z"/></g>
<g><path style="opacity:0.646" fill="#000000" d="M 181.5,225.5 C 182.978,225.238 184.311,225.571 185.5,226.5C 188.632,234.398 191.466,242.398 194,250.5C 194.5,242.173 194.666,233.84 194.5,225.5C 195.5,225.5 196.5,225.5 197.5,225.5C 197.5,237.167 197.5,248.833 197.5,260.5C 196.167,260.5 194.833,260.5 193.5,260.5C 190.972,251.416 188.139,242.416 185,233.5C 184.5,242.494 184.334,251.494 184.5,260.5C 183.5,260.5 182.5,260.5 181.5,260.5C 181.5,248.833 181.5,237.167 181.5,225.5 Z"/></g>
<g><path style="opacity:0.624" fill="#000000" d="M 214.5,225.5 C 220.192,224.26 224.026,226.26 226,231.5C 226.667,239.167 226.667,246.833 226,254.5C 223.523,260.45 219.357,261.95 213.5,259C 212.299,258.097 211.465,256.931 211,255.5C 210.333,247.167 210.333,238.833 211,230.5C 211.997,228.677 213.164,227.01 214.5,225.5 Z M 216.5,228.5 C 218.722,228.178 220.556,228.845 222,230.5C 222.667,238.833 222.667,247.167 222,255.5C 218.429,258.533 215.762,257.866 214,253.5C 213.333,246.5 213.333,239.5 214,232.5C 214.662,231.016 215.496,229.683 216.5,228.5 Z"/></g>
<g><path style="opacity:0.645" fill="#000000" d="M 239.5,225.5 C 240.833,225.5 242.167,225.5 243.5,225.5C 245.347,234.565 247.513,243.565 250,252.5C 252,243.833 254,235.167 256,226.5C 257.356,225.62 258.856,225.286 260.5,225.5C 260.5,237.167 260.5,248.833 260.5,260.5C 259.5,260.5 258.5,260.5 257.5,260.5C 257.666,252.16 257.5,243.827 257,235.5C 255.005,243.812 253.172,252.146 251.5,260.5C 250.178,260.67 249.011,260.337 248,259.5C 246.333,252.5 244.667,245.5 243,238.5C 242.5,245.826 242.334,253.159 242.5,260.5C 241.5,260.5 240.5,260.5 239.5,260.5C 239.5,248.833 239.5,237.167 239.5,225.5 Z"/></g>
<g><path style="opacity:0.688" fill="#000000" d="M 273.5,225.5 C 274.5,225.5 275.5,225.5 276.5,225.5C 276.5,237.167 276.5,248.833 276.5,260.5C 275.5,260.5 274.5,260.5 273.5,260.5C 273.5,248.833 273.5,237.167 273.5,225.5 Z"/></g>
<g><path style="opacity:0.558" fill="#000000" d="M 289.5,225.5 C 294.5,225.5 299.5,225.5 304.5,225.5C 304.5,226.5 304.5,227.5 304.5,228.5C 300.833,228.5 297.167,228.5 293.5,228.5C 293.5,232.833 293.5,237.167 293.5,241.5C 296.5,241.5 299.5,241.5 302.5,241.5C 302.5,242.5 302.5,243.5 302.5,244.5C 299.5,244.5 296.5,244.5 293.5,244.5C 293.334,248.846 293.501,253.179 294,257.5C 297.394,256.544 300.894,256.211 304.5,256.5C 304.5,257.833 304.5,259.167 304.5,260.5C 299.5,260.5 294.5,260.5 289.5,260.5C 289.5,248.833 289.5,237.167 289.5,225.5 Z"/></g>
</svg>
