<?xml version="1.0" encoding="UTF-8"?>
<!DOCTYPE svg PUBLIC "-//W3C//DTD SVG 1.1//EN" "http://www.w3.org/Graphics/SVG/1.1/DTD/svg11.dtd">
<svg xmlns="http://www.w3.org/2000/svg" version="1.1" width="140px" height="40px" style="shape-rendering:geometricPrecision; text-rendering:geometricPrecision; image-rendering:optimizeQuality; fill-rule:evenodd; clip-rule:evenodd" xmlns:xlink="http://www.w3.org/1999/xlink">
<g><path style="opacity:0.946" fill="#000" d="M 67.5,-0.5 C 71.1667,-0.5 74.8333,-0.5 78.5,-0.5C 78.5,5.83333 78.5,12.1667 78.5,18.5C 81.8333,18.5 85.1667,18.5 88.5,18.5C 88.5,21.5 88.5,24.5 88.5,27.5C 81.5,27.5 74.5,27.5 67.5,27.5C 67.5,18.1667 67.5,8.83333 67.5,-0.5 Z"/></g>
<g><path style="opacity:0.905" fill="#000" d="M -0.5,10.5 C 6.58884,10.1156 13.5888,10.6156 20.5,12C 23.4382,14.0248 25.2716,16.8582 26,20.5C 27.0095,16.1571 29.5095,12.9904 33.5,11C 50.317,8.49088 56.817,15.6575 53,32.5C 51.3059,35.3576 49.1393,37.691 46.5,39.5C 42.1667,39.5 37.8333,39.5 33.5,39.5C 28.4204,36.365 25.587,31.6983 25,25.5C 24.3645,26.9663 23.5312,28.2997 22.5,29.5C 24.3999,32.6293 25.7333,35.9627 26.5,39.5C 22.5,39.5 18.5,39.5 14.5,39.5C 11.6462,29.2611 10.3129,29.2611 10.5,39.5C 6.83333,39.5 3.16667,39.5 -0.5,39.5C -0.5,29.8333 -0.5,20.1667 -0.5,10.5 Z M 10.5,19.5 C 12.9118,19.6941 13.9118,21.0274 13.5,23.5C 12.5,23.5 11.5,23.5 10.5,23.5C 10.5,22.1667 10.5,20.8333 10.5,19.5 Z M 38.5,19.5 C 41.7705,19.6787 43.4371,21.512 43.5,25C 41.1439,32.3244 38.8105,32.3244 36.5,25C 36.7579,22.9907 37.4245,21.1573 38.5,19.5 Z"/></g>
<g><path style="opacity:0.947" fill="#000" d="M 54.5,10.5 C 58.1667,10.5 61.8333,10.5 65.5,10.5C 65.5,16.8333 65.5,23.1667 65.5,29.5C 68.8333,29.5 72.1667,29.5 75.5,29.5C 75.5,32.5 75.5,35.5 75.5,38.5C 68.5,38.5 61.5,38.5 54.5,38.5C 54.5,29.1667 54.5,19.8333 54.5,10.5 Z"/></g>
<g><path style="opacity:0.968" fill="#000" d="M 90.5,10.5 C 97.8333,10.5 105.167,10.5 112.5,10.5C 112.5,13.5 112.5,16.5 112.5,19.5C 108.445,19.1758 104.445,19.5091 100.5,20.5C 103.428,21.4841 106.428,21.8174 109.5,21.5C 109.5,23.5 109.5,25.5 109.5,27.5C 106.428,27.1826 103.428,27.5159 100.5,28.5C 104.445,29.4909 108.445,29.8242 112.5,29.5C 112.5,32.5 112.5,35.5 112.5,38.5C 105.167,38.5 97.8333,38.5 90.5,38.5C 90.5,29.1667 90.5,19.8333 90.5,10.5 Z"/></g>
<g><path style="opacity:0.931" fill="#000" d="M 139.5,20.5 C 139.5,21.1667 139.5,21.8333 139.5,22.5C 135.5,26.8333 135.5,31.1667 139.5,35.5C 139.5,36.5 139.5,37.5 139.5,38.5C 135.5,38.5 131.5,38.5 127.5,38.5C 125.348,29.4737 124.348,29.4737 124.5,38.5C 120.833,38.5 117.167,38.5 113.5,38.5C 113.5,29.1667 113.5,19.8333 113.5,10.5C 120.175,10.3337 126.842,10.5004 133.5,11C 137.031,13.3326 139.031,16.4993 139.5,20.5 Z M 124.5,19.5 C 125.5,19.5 126.5,19.5 127.5,19.5C 127.539,21.3588 126.706,22.6921 125,23.5C 124.51,22.2068 124.343,20.8734 124.5,19.5 Z"/></g>
</svg>
