<?xml version="1.0"?>
<svg width="362.73401" height="511.99998" xmlns="http://www.w3.org/2000/svg" xmlns:svg="http://www.w3.org/2000/svg" version="1.1">

 <metadata id="metadata3481">image/svg+xml</metadata>
 <g class="layer">
  <title>Layer 1</title>
  <polygon fill="#264de4" id="polygon2989" points="362.7340087890625,100.6199951171875 329.6880187988281,470.8190002441406 181.14500427246094,512 33.01100158691406,470.87701416015625 0.00000762939453125,100.6199951171875 "/>
  <polygon fill="#2965f1" id="polygon2991" points="301.3970031738281,447.2460021972656 329.6369934082031,130.8939971923828 181.36700439453125,130.8939971923828 181.36700439453125,480.52301025390625 "/>
  <polygon fill="#ebebeb" id="polygon2993" points="75.677001953125,268.2170104980469 79.74700927734375,313.62701416015625 181.36700439453125,313.62701416015625 181.36700439453125,268.2170104980469 "/>
  <polygon fill="#ebebeb" id="polygon2995" points="181.36700439453125,176.30499267578125 181.2100067138672,176.30499267578125 67.49900817871094,176.30499267578125 71.62699890136719,221.71600341796875 181.36700439453125,221.71600341796875 "/>
  <polygon fill="#ebebeb" id="polygon2997" points="181.36700439453125,433.39898681640625 181.36700439453125,386.15301513671875 181.16799926757812,386.20599365234375 130.59400939941406,372.54998779296875 127.36100769042969,336.3330078125 102.7860107421875,336.3330078125 81.7760009765625,336.3330078125 88.13800048828125,407.6340026855469 181.1580047607422,433.4570007324219 "/>
  <path d="m85.37,0l55,0l0,23l-32,0l0,23l32,0l0,23l-55,0l0,-69z" fill="#264de4" id="path2999"/>
  <path d="m151.37,0l55,0l0,20l-32,0l0,4l32,0l0,46l-55,0l0,-21l32,0l0,-4l-32,0l0,-45z" fill="#264de4" id="path3001"/>
  <path d="m217.37,0l55,0l0,20l-32,0l0,4l32,0l0,46l-55,0l0,-21l32,0l0,-4l-32,0l0,-45z" fill="#264de4" id="path3003"/>
  <polygon fill="#ffffff" id="polygon3005" points="237.12799072265625,313.62701416015625 231.85699462890625,372.52099609375 181.2100067138672,386.1910095214844 181.2100067138672,433.43499755859375 274.30401611328125,407.6340026855469 274.98699951171875,399.9620056152344 285.6579895019531,280.4110107421875 286.7659912109375,268.2170104980469 294.9639892578125,176.30499267578125 181.2100067138672,176.30499267578125 181.2100067138672,221.71600341796875 245.197998046875,221.71600341796875 241.06600952148438,268.2170104980469 181.2100067138672,268.2170104980469 181.2100067138672,313.62701416015625 "/>
 </g>
</svg>